<?xml version="1.0" encoding="UTF-8" standalone="no"?>
<!-- Created with Inkscape (http://www.inkscape.org/) -->

<svg
   xmlns:dc="http://purl.org/dc/elements/1.1/"
   xmlns:cc="http://creativecommons.org/ns#"
   xmlns:rdf="http://www.w3.org/1999/02/22-rdf-syntax-ns#"
   xmlns:svg="http://www.w3.org/2000/svg"
   xmlns="http://www.w3.org/2000/svg"
   xmlns:sodipodi="http://sodipodi.sourceforge.net/DTD/sodipodi-0.dtd"
   xmlns:inkscape="http://www.inkscape.org/namespaces/inkscape"
   width="44.21291mm"
   height="79.67218mm"
   viewBox="0 0 44.212908 79.672178"
   version="1.1"
   id="svg8"
   inkscape:version="0.92.4 (5da689c313, 2019-01-14)"
   sodipodi:docname="rabbit.svg">
  <defs
     id="defs2" />
  <sodipodi:namedview
     id="base"
     pagecolor="#ffffff"
     bordercolor="#666666"
     borderopacity="1.0"
     inkscape:pageopacity="0.0"
     inkscape:pageshadow="2"
     inkscape:zoom="1.28"
     inkscape:cx="190.19177"
     inkscape:cy="136.78314"
     inkscape:document-units="mm"
     inkscape:current-layer="layer1"
     showgrid="false"
     inkscape:snap-midpoints="false"
     inkscape:window-width="1366"
     inkscape:window-height="731"
     inkscape:window-x="0"
     inkscape:window-y="0"
     inkscape:window-maximized="1" />
  <metadata
     id="metadata5">
    <rdf:RDF>
      <cc:Work
         rdf:about="">
        <dc:format>image/svg+xml</dc:format>
        <dc:type
           rdf:resource="http://purl.org/dc/dcmitype/StillImage" />
        <dc:title></dc:title>
      </cc:Work>
    </rdf:RDF>
  </metadata>
  <g
     inkscape:label="Layer 1"
     inkscape:groupmode="layer"
     id="layer1"
     transform="translate(-66.974178,-32.444884)"
     style="display:inline" />
  <g
     inkscape:groupmode="layer"
     id="layer2"
     inkscape:label="Bunny"
     transform="translate(-66.974178,-32.444884)">
    <path
       style="opacity:1;fill:none;stroke:#151d39;stroke-width:0.26458332px;stroke-linecap:butt;stroke-linejoin:miter;stroke-opacity:1"
       d="m 92.389703,68.420352 c 0.141273,-11.86809 7.021992,-28.12089 13.356837,-34.25977 0.58641,-0.56827 1.05834,-1.24744 1.86082,-1.18267 0.50999,-0.043 1.33817,0.27765 1.74388,2.34641 1.705,8.69384 0.55304,18.6188 -2.898,28.08948 -1.2803,3.51352 -3.25877,6.87807 -4.97638,10.21831"
       id="path842"
       inkscape:connector-curvature="0"
       sodipodi:nodetypes="cscssc"
       inkscape:export-xdpi="200"
       inkscape:export-ydpi="200" />
    <path
       style="opacity:1;fill:none;stroke:#151d39;stroke-width:0.26458332px;stroke-linecap:butt;stroke-linejoin:miter;stroke-opacity:1"
       d="m 101.47686,73.632112 c 0.99793,1.95571 3.1183,5.75859 3.97981,7.6091 6.46929,13.81991 6.02313,16.43227 3.42357,19.386308 -4.70354,3.48968 -11.136963,6.60662 -15.738841,9.36995 -3.005924,1.80499 -4.060765,1.58251 -4.060765,1.58251"
       id="path844-5"
       inkscape:connector-curvature="0"
       sodipodi:nodetypes="cccsc"
       inkscape:export-xdpi="200"
       inkscape:export-ydpi="200" />
    <path
       style="opacity:1;fill:none;stroke:#151d39;stroke-width:1.05833328;stroke-linecap:round;stroke-linejoin:round;stroke-miterlimit:4;stroke-dasharray:none;stroke-opacity:1"
       d="m 92.389705,68.420362 c 0.14127,-11.86809 7.02199,-28.12089 13.356835,-34.25978 0.58641,-0.56827 1.05834,-1.24744 1.86082,-1.18267 0.50999,-0.043 1.33817,0.27765 1.74388,2.34641 1.705,8.69385 0.55304,18.6188 -2.898,28.08949 -1.2803,3.51351 -3.25877,6.87807 -4.97638,10.2183"
       id="path842-0"
       inkscape:connector-curvature="0"
       sodipodi:nodetypes="cscssc"
       inkscape:export-xdpi="200"
       inkscape:export-ydpi="200" />
    <path
       style="opacity:1;fill:none;stroke:#151d39;stroke-width:1.05833328;stroke-linecap:round;stroke-linejoin:round;stroke-miterlimit:4;stroke-dasharray:none;stroke-opacity:1"
       d="m 101.47686,73.632112 c 0.99793,1.95572 3.1183,5.7586 3.97981,7.6091 6.46929,13.81991 6.02313,16.43228 3.42357,19.386308 -4.70354,3.48968 -11.136965,6.60663 -15.738835,9.36996 -3.00593,1.80499 -4.06077,1.58251 -4.06077,1.58251"
       id="path844-5-9"
       inkscape:connector-curvature="0"
       sodipodi:nodetypes="cccsc"
       inkscape:export-xdpi="200"
       inkscape:export-ydpi="200" />
    <path
       style="opacity:1;fill:none;stroke:#151d39;stroke-width:1.05833328;stroke-linecap:round;stroke-linejoin:round;stroke-miterlimit:4;stroke-dasharray:none;stroke-opacity:1"
       d="m 85.771565,68.420362 c -0.14127,-11.86809 -7.021991,-28.12089 -13.356838,-34.25978 -0.58641,-0.56827 -1.05834,-1.24744 -1.86082,-1.18267 -0.50999,-0.043 -1.33817,0.27765 -1.74388,2.34641 -1.705,8.69385 -0.55304,18.6188 2.898,28.08949 1.2803,3.51351 3.258768,6.87807 4.976377,10.2183"
       id="path842-0-3"
       inkscape:connector-curvature="0"
       sodipodi:nodetypes="cscssc"
       inkscape:export-xdpi="200"
       inkscape:export-ydpi="200" />
    <path
       style="opacity:1;fill:none;stroke:#151d39;stroke-width:1.05833328;stroke-linecap:round;stroke-linejoin:round;stroke-miterlimit:4;stroke-dasharray:none;stroke-opacity:1"
       d="m 76.684404,73.632112 c -0.99793,1.95572 -3.118297,5.7586 -3.979807,7.6091 -6.46929,13.81991 -6.02313,16.43228 -3.42357,19.386308 4.703541,3.48968 11.136968,6.60663 15.738838,9.36996 3.00593,1.80499 4.06077,1.58251 4.06077,1.58251"
       id="path844-5-9-6"
       inkscape:connector-curvature="0"
       sodipodi:nodetypes="cccsc"
       inkscape:export-xdpi="200"
       inkscape:export-ydpi="200" />
    <path
       style="opacity:1;fill:none;stroke:#151d39;stroke-width:1.05833328;stroke-linecap:butt;stroke-linejoin:round;stroke-miterlimit:4;stroke-dasharray:none;stroke-opacity:1"
       d="m 85.771563,68.420362 c 2.022155,-0.90978 4.174273,-1.17659 6.618142,0"
       id="path4750"
       inkscape:connector-curvature="0"
       sodipodi:nodetypes="cc"
       inkscape:export-xdpi="200"
       inkscape:export-ydpi="200" />
  </g>
</svg>
